<?xml version="1.0" encoding="UTF-8"?>
<svg version="1.1" xmlns="http://www.w3.org/2000/svg" width="1280" height="1024">
<path d="M0 0 C422.4 0 844.8 0 1280 0 C1280 337.92 1280 675.84 1280 1024 C857.6 1024 435.2 1024 0 1024 C0 686.08 0 348.16 0 0 Z " fill="#090C2D" transform="translate(0,0)"/>
<path d="M0 0 C2.6356589 1.31782945 2.72691805 2.38240621 3.76147461 5.109375 C4.27104454 6.4366436 4.27104454 6.4366436 4.79090881 7.79072571 C5.15768234 8.76728622 5.52445587 9.74384674 5.90234375 10.75 C6.48591896 12.27786385 6.48591896 12.27786385 7.08128357 13.83659363 C7.92720998 16.053736 8.76990684 18.27211258 9.60980225 20.49154663 C10.95267341 24.04009588 12.30351809 27.58551233 13.65673828 31.13012695 C15.05793577 34.80054044 16.4586733 38.47112085 17.85693359 42.14265442 C21.93709603 52.85462712 26.07110175 63.54512098 30.22479248 74.22875977 C32.18462374 79.2701384 34.14120955 84.31277586 36.09765625 89.35546875 C36.49384155 90.37655731 36.89002686 91.39764587 37.29821777 92.44967651 C42.15087582 104.96082437 46.98205739 117.48026188 51.8125 130 C52.27138611 131.1893515 52.73027222 132.378703 53.20306396 133.60409546 C55.53615967 139.65133939 57.86897007 145.69869334 60.20166016 151.74609375 C62.97083613 158.92480481 65.74109566 166.10309734 68.51171875 173.28125 C69.19143738 175.04227051 69.19143738 175.04227051 69.8848877 176.83886719 C71.25657312 180.39258533 72.62828188 183.94629447 74 187.5 C79.06834691 200.63054931 84.13664239 213.76111782 89.20199585 226.89282227 C98.28328276 250.43556836 107.37111694 273.97566289 116.5 297.5 C126.09922223 322.23636021 135.65251784 346.9903653 145.20166016 371.74609375 C149.34219309 382.47986069 153.48519066 393.21267635 157.62802124 403.94555664 C159.91878357 409.88033144 162.2093835 415.81516891 164.5 421.75 C165.41666589 424.1250003 166.33333256 426.5000003 167.25 428.875 C169.08333333 433.625 170.91666667 438.375 172.75 443.125 C173.20373489 444.30058472 173.65746979 445.47616943 174.12495422 446.68737793 C175.04177658 449.06278363 175.95859584 451.43819053 176.87541199 453.81359863 C179.16467107 459.74490122 181.45398385 465.67618307 183.7434082 471.60742188 C187.89720212 482.36886289 192.05058102 493.13046322 196.20199585 503.89282227 C205.28328276 527.43556836 214.37111694 550.97566289 223.5 574.5 C229.82428317 590.7971273 236.13328104 607.10007544 242.42669678 623.40914917 C243.80630976 626.98396003 245.18655389 630.5585267 246.56689453 634.13305664 C250.887875 645.32535674 255.2023044 656.52006957 259.49693298 667.72250366 C261.23483581 672.2555406 262.97584767 676.78738166 264.71754932 681.31896019 C265.8986711 684.39272031 267.07749792 687.46733002 268.25308228 690.54321289 C273.21348427 703.52089978 278.32577061 716.3587301 284.09338379 728.99935913 C296.10556126 755.50677527 306.94462511 782.71156946 315.8125 810.4375 C316.16731445 811.54520752 316.16731445 811.54520752 316.52929688 812.67529297 C317.54249609 815.98266468 318 818.49630908 318 822 C265.53 822 213.06 822 159 822 C155.04 812.43 151.08 802.86 147 793 C135.1998755 766.44971988 122.52966291 740.43254657 107.51953125 715.53955078 C106.14198439 713.23729461 104.79681122 710.92089012 103.46875 708.58984375 C89.68694876 684.46101133 73.41675257 661.63222921 56 640 C55.21882813 639.02417969 54.43765625 638.04835938 53.6328125 637.04296875 C49.35058521 631.74574987 44.93193588 626.60945477 40.3359375 621.58203125 C38.42341718 619.46802467 36.54303606 617.33393894 34.671875 615.18359375 C25.19118014 604.32912413 15.27795809 594.00635351 4.54101562 584.39257812 C3.01512091 583.01366439 1.51260761 581.61332601 0.015625 580.203125 C-6.7796336 573.82106124 -13.8879468 567.9865083 -21.28710938 562.31884766 C-22.90472868 561.07335457 -24.50756074 559.80872399 -26.109375 558.54296875 C-40.95109681 546.88430656 -56.72697101 536.54148451 -73 527 C-73.69319336 526.59217285 -74.38638672 526.1843457 -75.10058594 525.76416016 C-96.13624106 513.48759769 -118.21918278 503.3831427 -141.09423828 495.06396484 C-143.67737195 494.1181325 -146.24395163 493.13909481 -148.80859375 492.14453125 C-159.75312666 487.99621908 -170.9718595 485.08249001 -182.3125 482.25 C-183.07641052 482.05904755 -183.84032104 481.86809509 -184.62738037 481.6713562 C-218.1700059 473.33686898 -251.52578773 469.60572022 -286.09887695 469.79418945 C-289.59268416 469.81265957 -293.08622665 469.81469645 -296.58007812 469.81445312 C-313.32073369 469.83919239 -329.76003807 470.18727624 -346.3125 472.9375 C-347.37533203 473.10701172 -348.43816406 473.27652344 -349.53320312 473.45117188 C-352.69058466 473.95719951 -355.84555982 474.4759693 -359 475 C-360.14259277 475.18965332 -361.28518555 475.37930664 -362.46240234 475.57470703 C-365.30852341 476.04829557 -368.15439185 476.52334071 -371 477 C-368.28588395 474.28588395 -365.08021976 473.26875719 -361.5703125 471.8828125 C-360.82474091 471.58438446 -360.07916931 471.28595642 -359.31100464 470.97848511 C-357.72655461 470.34564234 -356.1410836 469.7153508 -354.5546875 469.08740234 C-352.16665816 468.14150085 -349.7823441 467.18670548 -347.3984375 466.23046875 C-339.88146841 463.2297043 -332.3697753 460.37612088 -324.66259766 457.89306641 C-321.17104897 456.72196013 -317.78157734 455.34224278 -314.37304688 453.95117188 C-298.1985015 447.46804134 -281.23510204 443.28114932 -264.40576172 438.90039062 C-259.8774079 437.70321723 -255.37682363 436.41750037 -250.875 435.125 C-245.18754787 433.505873 -239.54101723 432.24775195 -233.67578125 431.45703125 C-230.85208563 431.02720985 -230.85208563 431.02720985 -227.59765625 430.0078125 C-224.07449185 429.02086742 -220.75494786 428.48693711 -217.125 428.0625 C-211.62434584 427.38973829 -206.19657523 426.51869248 -200.75 425.5 C-187.9609312 423.15809026 -175.01672105 421.58458993 -162 422 C-161.83065948 421.40347626 -161.66131897 420.80695251 -161.48684692 420.19235229 C-159.60550381 413.72715089 -157.36976329 407.4684578 -154.9296875 401.1953125 C-154.33880844 399.66284882 -154.33880844 399.66284882 -153.73599243 398.09942627 C-152.45252659 394.77324096 -151.16382789 391.44911087 -149.875 388.125 C-148.98079015 385.81083698 -148.08691387 383.49654505 -147.19335938 381.18212891 C-145.36496955 376.44811164 -143.53445431 371.71492477 -141.70214844 366.98242188 C-139.14250425 360.37052282 -136.58980116 353.7559638 -134.0390625 347.140625 C-132.52627385 343.2186604 -131.01322442 339.29679648 -129.5 335.375 C-129.1456488 334.45656311 -128.79129761 333.53812622 -128.4262085 332.59185791 C-122.20631447 316.47642998 -122.20631447 316.47642998 -119.9375 310.8515625 C-117.01861668 303.60951669 -114.27831045 296.296795 -111.5 289 C-104.91373031 271.70219957 -104.91373031 271.70219957 -101.85009766 264.10791016 C-100.52048493 260.81098992 -99.22662143 257.50042514 -97.9375 254.1875 C-97.50957153 253.08825195 -97.50957153 253.08825195 -97.07299805 251.96679688 C-93.63027837 243.09135647 -90.26904224 234.18468389 -86.90795898 225.27807617 C-84.6304935 219.25276859 -82.32257832 213.24457375 -79.91381836 207.27050781 C-78.45645406 203.64948511 -77.03944279 200.01296168 -75.625 196.375 C-75.32682373 195.60865234 -75.02864746 194.84230469 -74.72143555 194.05273438 C-72.45513713 188.21120146 -70.24682633 182.34934888 -68.05908203 176.47802734 C-66.45659245 172.18714356 -64.78322016 167.93194306 -63.0625 163.6875 C-61.66095848 160.1424244 -60.33133876 156.57192467 -59 153 C-57.1002824 147.90634188 -55.15916761 142.83709086 -53.12109375 137.796875 C-48.95789968 127.41064869 -44.96628019 116.95763346 -41.05688477 106.47363281 C-39.46864055 102.2234168 -37.82189592 98.00300817 -36.12109375 93.796875 C-31.95853279 83.41222815 -27.96534837 72.96140319 -24.05908203 62.47802734 C-22.45659245 58.18714356 -20.78322016 53.93194306 -19.0625 49.6875 C-17.40737743 45.50101349 -15.84419576 41.28024615 -14.28125 37.05859375 C-12.92771048 33.41727819 -11.52779516 29.79953177 -10.078125 26.1953125 C-7.9006714 20.78071122 -5.81925662 15.33170635 -3.75 9.875 C-3.38648438 8.91851562 -3.02296875 7.96203125 -2.6484375 6.9765625 C-1.76485082 4.6513344 -0.88204944 2.32581157 0 0 Z " fill="#D5B460" transform="translate(667,101)"/>
<path d="M0 0 C7.77170236 0.56627982 14.88075742 2.95707268 22.25 5.375 C22.92784546 5.59586273 23.60569092 5.81672546 24.30407715 6.04428101 C60.52313717 17.88366265 95.490527 33.38879077 127 55 C124.90884189 62.16624669 122.60945617 69.24266746 120.19140625 76.3046875 C119.82829849 77.3704451 119.46519073 78.4362027 119.09107971 79.53425598 C117.91639603 82.98168737 116.7394356 86.42833684 115.5625 89.875 C113.93474103 94.64924413 112.30863982 99.42405056 110.68359375 104.19921875 C110.28160767 105.38036758 109.87962158 106.56151642 109.4654541 107.77845764 C107.04741513 114.89241046 104.65084039 122.01299924 102.28515625 129.14453125 C102.00940262 129.97557373 101.73364899 130.80661621 101.44953918 131.6628418 C100.19646661 135.4433584 98.94808724 139.22536058 97.70532227 143.00927734 C95.92161503 148.41861529 94.13557092 153.80144826 91.96484375 159.0703125 C89.3956799 165.31128284 87.45368449 171.7513495 85.4375 178.1875 C83.21435908 185.28002471 80.92858667 192.1666311 78 199 C76.03830851 204.80537335 74.23604342 210.66238585 72.40429688 216.50976562 C70.75722051 221.71385581 69.11624679 226.87249677 67.02734375 231.91796875 C64.25718337 238.62940863 62.17865317 245.580057 60 252.5 C57.56943573 260.22007515 55.12565332 267.86513866 52.02734375 275.34960938 C49.72402133 281.2918309 47.91328189 287.42294203 46 293.5 C43.28397084 302.1267825 40.50431038 310.65239602 37 319 C36.34 320.65 35.68 322.3 35 324 C-17.8 324 -70.6 324 -125 324 C-121.62512803 313.87538409 -121.62512803 313.87538409 -119.98901367 309.65039062 C-119.61890671 308.69156982 -119.24879974 307.73274902 -118.86747742 306.74487305 C-118.47163956 305.72562744 -118.0758017 304.70638184 -117.66796875 303.65625 C-117.2440535 302.55966064 -116.82013824 301.46307129 -116.38337708 300.33325195 C-114.98665552 296.72142804 -113.58705592 293.11072645 -112.1875 289.5 C-111.19809966 286.94354034 -110.20937657 284.38681897 -109.22070312 281.83007812 C-107.42571241 277.18869396 -105.63007352 272.54756166 -103.8335743 267.90676117 C-99.33253215 256.27916374 -94.84379477 244.64682426 -90.35586548 233.01416016 C-88.07113821 227.09255683 -85.78552083 221.17129708 -83.5 215.25 C-82.58332914 212.87500162 -81.66666247 210.50000162 -80.75 208.125 C-75.25000001 193.87500004 -75.25000001 193.87500004 -73.87504578 190.31262207 C-72.95822342 187.93721637 -72.04140416 185.56180947 -71.12458801 183.18640137 C-68.83532893 177.25509878 -66.54601615 171.32381693 -64.2565918 165.39257812 C-60.10283904 154.63124374 -55.94950386 143.86974905 -51.79812622 133.10749817 C-40.28344257 103.25626978 -28.74924378 73.41275567 -17.16894531 43.58691406 C-15.37157566 38.9576434 -13.57548065 34.3278794 -11.77972412 29.69798279 C-10.45424781 26.28119117 -9.127908 22.86473531 -7.80126953 19.44839478 C-7.19028032 17.87460234 -6.57959647 16.30069132 -5.96923828 14.72665405 C-5.14447189 12.59996389 -4.31850169 10.4737454 -3.4921875 8.34765625 C-3.03183105 7.16179932 -2.57147461 5.97594238 -2.09716797 4.75415039 C-1 2 -1 2 0 0 Z " fill="#D7B661" transform="translate(475,599)"/>
<path d="M0 0 C0.66 0 1.32 0 2 0 C2.18251816 0.67270432 2.36503632 1.34540863 2.55308533 2.03849792 C4.31645381 8.46710184 6.17474595 14.85990771 8.13657284 21.23092175 C9.14167454 24.5063648 10.1106353 27.78359479 10.99633789 31.09350586 C15.36543403 48.02866376 15.36543403 48.02866376 26.85913086 60.44897461 C32.03150131 63.31929784 37.37825984 65.54257407 42.89126587 67.66622925 C48.17043888 69.93120472 52.89667661 73.04279349 57.6875 76.1875 C58.64241333 76.80858643 59.59732666 77.42967285 60.58117676 78.06958008 C67.87670017 82.83633987 75.02207925 87.78043109 82 93 C82.68433105 93.50917969 83.36866211 94.01835938 84.07373047 94.54296875 C91.83681878 100.33647228 99.46962835 106.1570689 106.54833984 112.78491211 C108.85672613 114.8705513 111.23361862 116.76931932 113.6875 118.6796875 C121.38119667 124.94567463 128.29827259 131.99928113 135.2890625 139.02832031 C137.62019423 141.37017213 139.96182708 143.70113851 142.3046875 146.03125 C149.29586513 153.01657346 156.14867467 159.95400184 162.22705078 167.76171875 C164.12831533 170.16199325 166.15778526 172.3902768 168.25 174.625 C174.66637772 181.68635156 180.29309951 189.36479133 186 197 C186.88558594 198.18021729 186.88558594 198.18021729 187.7890625 199.38427734 C195.52779953 209.71306246 203.01110241 220.14910138 210 231 C210.45020508 231.69464355 210.90041016 232.38928711 211.36425781 233.10498047 C223.16052622 251.34917489 234.01667791 270.12422167 244.3125 289.25 C244.80866318 290.16771683 244.80866318 290.16771683 245.31484985 291.10397339 C246.25288414 292.8425489 247.18324548 294.58525765 248.11328125 296.328125 C248.64735596 297.3274707 249.18143066 298.32681641 249.73168945 299.35644531 C250.81280783 301.60983314 251.52604522 303.55962168 252 306 C248.83645174 303.30512556 247.17336243 299.85468274 245.25 296.25 C230.44614127 269.27470866 211.77731864 243.55577367 192 220 C191.12885921 218.95316415 190.25776762 217.90628734 189.38671875 216.859375 C183.56572394 209.89328348 177.55219863 203.1392991 171.375 196.48828125 C169.99072394 194.98995971 168.61869273 193.481311 167.25 191.96875 C159.25066039 183.13895543 151.08924672 174.48014964 142.015625 166.734375 C139.69885379 164.74087419 137.44580016 162.68445612 135.1875 160.625 C114.08778117 141.65753028 90.61050771 125.09168449 66 111 C65.22269531 110.55188965 64.44539062 110.1037793 63.64453125 109.64208984 C35.96762239 93.79223215 6.54183758 82.05786241 -24 73 C-22.54708409 65.75054515 -20.41068096 58.90094493 -18.0078125 51.9140625 C-17.62060028 50.77649506 -17.23338806 49.63892761 -16.83444214 48.46688843 C-15.6024004 44.85139331 -14.36366971 41.23822898 -13.125 37.625 C-12.30037 35.20586931 -11.4761474 32.78659972 -10.65234375 30.3671875 C-9.85453165 28.02852129 -9.0563661 25.68997562 -8.2578125 23.3515625 C-7.89100372 22.27725983 -7.52419495 21.20295715 -7.14627075 20.09609985 C-4.83950328 13.36907372 -2.45485972 6.67440486 0 0 Z " fill="#0B0E2D" transform="translate(667,463)"/>
<path d="M0 0 C2.59563145 2.59563145 2.22964828 4.35072509 2.2319895 7.88538229 C2.22227287 8.7161105 2.21255624 9.5468387 2.20254517 10.40274048 C2.19898311 11.72224939 2.19898311 11.72224939 2.1953491 13.06841505 C2.18488307 16.03352958 2.15999879 18.99835162 2.13525391 21.96337891 C2.12483405 24.08186951 2.11529766 26.20036461 2.10658264 28.31886292 C2.08034107 34.08516564 2.04167648 39.85132725 2.00085878 45.61754274 C1.96032842 51.63800652 1.93111569 57.65852467 1.90072632 63.67904663 C1.84141364 75.08651901 1.7718541 86.49390522 1.69865549 97.90129602 C1.61583565 110.8853338 1.5443745 123.86942621 1.47388959 136.85353589 C1.3286071 163.56910429 1.1689883 190.28457178 1 217 C0.67 217 0.34 217 0 217 C-0.00423194 215.92563533 -0.00846388 214.85127066 -0.01282406 213.74434948 C-0.11590966 187.63113681 -0.2246441 161.51795235 -0.33933926 135.40478802 C-0.39467294 122.77678549 -0.44815519 110.14878015 -0.49731445 97.52075195 C-0.5401545 86.51720135 -0.58643205 75.51367157 -0.63687855 64.51015311 C-0.66348091 58.68115473 -0.68833405 52.85216048 -0.70907402 47.02313805 C-0.72863348 41.54114195 -0.75277523 36.05918548 -0.78049088 30.57722473 C-0.78986496 28.56118297 -0.79753896 26.54513251 -0.80341911 24.52907753 C-0.81167418 21.7844119 -0.82594924 19.03984261 -0.84178162 16.29521179 C-0.84275972 15.49074212 -0.84373783 14.68627245 -0.84474558 13.85742491 C-0.86871143 10.64413023 -0.97644951 8.07065146 -2 5 C-1.0625 2.3125 -1.0625 2.3125 0 0 Z " fill="#C29950" transform="translate(667,101)"/>
<path d="M0 0 C0.33 0.66 0.66 1.32 1 2 C-0.07121094 2.26554688 -1.14242188 2.53109375 -2.24609375 2.8046875 C-3.64333805 3.16103168 -5.04046764 3.51782582 -6.4375 3.875 C-7.49807617 4.13603516 -7.49807617 4.13603516 -8.58007812 4.40234375 C-10.40368957 4.87351608 -12.20443229 5.43123057 -14 6 C-14.33 6.66 -14.66 7.32 -15 8 C-17.72265625 8.6328125 -17.72265625 8.6328125 -21.0625 9.125 C-22.16722656 9.29257812 -23.27195312 9.46015625 -24.41015625 9.6328125 C-25.69212891 9.81457031 -25.69212891 9.81457031 -27 10 C-23.49644755 6.49644755 -18.59822428 5.16867559 -14.0625 3.3125 C-12.53979492 2.66958008 -12.53979492 2.66958008 -10.98632812 2.01367188 C-10.01244141 1.61341797 -9.03855469 1.21316406 -8.03515625 0.80078125 C-7.1419165 0.43122314 -6.24867676 0.06166504 -5.32836914 -0.3190918 C-3 -1 -3 -1 0 0 Z " fill="#9B7C49" transform="translate(323,568)"/>
<path d="M0 0 C3.79841561 4.80935251 6.41823941 10.21289682 9.25 15.625 C9.8171875 16.6871875 10.384375 17.749375 10.96875 18.84375 C11.49984375 19.85695313 12.0309375 20.87015625 12.578125 21.9140625 C13.06700195 22.8417041 13.55587891 23.7693457 14.05957031 24.72509766 C14.36991211 25.47581543 14.68025391 26.2265332 15 27 C14.67 27.66 14.34 28.32 14 29 C13.68772461 28.45585449 13.37544922 27.91170898 13.05371094 27.35107422 C11.62126914 24.85781968 10.18566127 22.36640199 8.75 19.875 C8.25886719 19.0190625 7.76773438 18.163125 7.26171875 17.28125 C5.14848619 13.61831356 3.04653011 10.00012903 0.625 6.53125 C-1 4 -1 4 -0.75 1.625 C-0.5025 1.08875 -0.255 0.5525 0 0 Z " fill="#3F3536" transform="translate(904,740)"/>
<path d="M0 0 C0.33 0.66 0.66 1.32 1 2 C-2.3 2.66 -5.6 3.32 -9 4 C-8 1 -8 1 -5.625 -0.25 C-3 -1 -3 -1 0 0 Z " fill="#B28A4A" transform="translate(323,568)"/>
</svg>
