<?xml version="1.0" encoding="UTF-8"?>
<svg version="1.1" xmlns="http://www.w3.org/2000/svg" width="500" height="500">
<path d="M0 0 C165 0 330 0 500 0 C500 165 500 330 500 500 C335 500 170 500 0 500 C0 335 0 170 0 0 Z " fill="#030F1B" transform="translate(0,0)"/>
<path d="M0 0 C0 0.66 0 1.32 0 2 C0.70125 2.103125 1.4025 2.20625 2.125 2.3125 C8.96203641 3.94744349 14.21551579 7.96050521 19 13 C19 13.66 19 14.32 19 15 C19.66 15 20.32 15 21 15 C21.79686606 16.53898561 22.58723141 18.08133784 23.375 19.625 C23.81585938 20.48351562 24.25671875 21.34203125 24.7109375 22.2265625 C27.75525698 28.77646199 28.28866162 34.16144956 28.26069641 41.28601074 C28.26452196 42.32004264 28.26834751 43.35407454 28.27228898 44.41944075 C28.28260517 47.88319455 28.27862941 51.34678216 28.2746582 54.81054688 C28.27900539 57.29427748 28.28418856 59.77800674 28.29014587 62.26173401 C28.30215361 68.30688583 28.30468754 74.35197237 28.30234561 80.39713013 C28.30056173 85.3106518 28.30231359 90.22415999 28.30657005 95.13768005 C28.30716524 95.83730117 28.30776043 96.53692229 28.30837366 97.25774404 C28.30958542 98.67906145 28.31079955 100.10037886 28.31201603 101.52169627 C28.32288843 114.84582619 28.32073031 128.16993078 28.31463119 141.49406213 C28.30946043 153.68229481 28.32072218 165.87044762 28.33972941 178.0586645 C28.35910193 190.57716837 28.36736496 203.09563443 28.36360615 215.61415339 C28.36169346 222.64094326 28.36418848 229.66766511 28.37832069 236.69444275 C28.39147189 243.30018646 28.38898249 249.90579644 28.37590981 256.511549 C28.37353826 258.93754568 28.37629928 261.36355355 28.38453293 263.78953743 C28.39495275 267.09787551 28.38693766 270.40567097 28.3742218 273.71398926 C28.38159609 274.67682941 28.38897037 275.63966956 28.39656812 276.63168669 C28.35384331 281.90545634 27.79202993 285.37216996 25 290 C24.690625 290.99 24.38125 291.98 24.0625 293 C21.453575 300.36637647 15.3859954 308.2837998 8.69140625 312.4296875 C4.55427023 314.34128155 0.55845477 315.53246618 -4 316 C-4 316.66 -4 317.32 -4 318 C-24.67556803 318.76418937 -24.67556803 318.76418937 -33 314 C-34.03125 313.46375 -35.0625 312.9275 -36.125 312.375 C-37.053125 311.694375 -37.053125 311.694375 -38 311 C-38 310.34 -38 309.68 -38 309 C-38.73756027 308.74976074 -39.47512054 308.49952148 -40.23503113 308.24169922 C-43.23768202 306.89326116 -44.9215155 305.45288475 -47.23950195 303.1328125 C-48.03995438 302.33858887 -48.8404068 301.54436523 -49.66511536 300.72607422 C-50.5142601 299.86771973 -51.36340485 299.00936523 -52.23828125 298.125 C-53.11904831 297.24473145 -53.99981537 296.36446289 -54.90727234 295.45751953 C-57.23907952 293.12277633 -59.56369742 290.78115041 -61.88580322 288.43676758 C-63.78865043 286.5204885 -65.70073934 284.61357009 -67.61300373 282.70669556 C-69.88916249 280.43467262 -72.1572467 278.15463174 -74.42578125 275.875 C-75.28504715 275.01664551 -76.14431305 274.15829102 -77.02961731 273.27392578 C-77.81430893 272.47970215 -78.59900055 271.68547852 -79.4074707 270.8671875 C-80.10298538 270.16706543 -80.79850006 269.46694336 -81.51509094 268.74560547 C-83 267 -83 267 -83 265 C-83.53230225 264.79511963 -84.06460449 264.59023926 -84.61303711 264.37915039 C-87.99046136 262.42772668 -90.49577384 259.70904007 -93.19140625 256.93359375 C-94.07118385 256.04245628 -94.07118385 256.04245628 -94.96873474 255.13331604 C-96.83821222 253.23944994 -98.7010968 251.33930054 -100.5625 249.4375 C-103.01641189 246.93048272 -105.47679112 244.43008448 -107.94140625 241.93359375 C-108.50396622 241.3544371 -109.06652618 240.77528046 -109.64613342 240.17857361 C-112.07272697 237.72158481 -113.67605479 236.10798174 -117 235 C-118.01351664 233.34151823 -119.01120795 231.67334039 -120 230 C-120.86625 229.13375 -121.7325 228.2675 -122.625 227.375 C-125 225 -125 225 -126 222 C-126.66 221.67 -127.32 221.34 -128 221 C-128 220.34 -128 219.68 -128 219 C-128.58848221 218.89883881 -129.17696442 218.79767761 -129.78327942 218.69345093 C-132.40082383 217.87461133 -133.53716487 216.83726508 -135.4675293 214.90478516 C-136.1246843 214.25385895 -136.78183929 213.60293274 -137.45890808 212.93228149 C-138.1569606 212.22501923 -138.85501312 211.51775696 -139.57421875 210.7890625 C-140.66087578 209.70315323 -140.66087578 209.70315323 -141.76948547 208.5953064 C-143.29857825 207.06387394 -144.82398075 205.52874925 -146.34594727 203.99023438 C-148.68021842 201.63235522 -151.02753497 199.28808901 -153.37695312 196.9453125 C-154.86016933 195.4565201 -156.34261769 193.96696225 -157.82421875 192.4765625 C-158.88040657 191.42174179 -158.88040657 191.42174179 -159.95793152 190.34561157 C-160.60563004 189.68838104 -161.25332855 189.03115051 -161.9206543 188.35400391 C-162.77858833 187.48915878 -162.77858833 187.48915878 -163.65385437 186.60684204 C-165 185 -165 185 -166 182 C-167.65557897 180.50387824 -167.65557897 180.50387824 -169.6875 179.125 C-173.26055431 176.53694985 -176.71841414 173.95342728 -180 171 C-180 170.34 -180 169.68 -180 169 C-180.99 169 -181.98 169 -183 169 C-183.350625 168.113125 -183.70125 167.22625 -184.0625 166.3125 C-185.88809192 163.19132672 -186.76990305 162.22782302 -189.62109375 160.29296875 C-190.25329834 159.85879639 -190.88550293 159.42462402 -191.53686523 158.97729492 C-192.01969971 158.6547876 -192.50253418 158.33228027 -193 158 C-193.00331015 158.63168846 -193.00662029 159.26337692 -193.01003075 159.91420746 C-193.09135609 175.30564698 -193.18347954 190.69697864 -193.28752708 206.08827972 C-193.33758565 213.53148863 -193.38402916 220.9746869 -193.421875 228.41796875 C-193.45488209 234.9077735 -193.49476105 241.397494 -193.54279006 247.8872056 C-193.56796869 251.32142148 -193.5897751 254.7555821 -193.60334396 258.18986511 C-193.62024497 262.02969398 -193.64929035 265.86925452 -193.68115234 269.70898438 C-193.68331253 270.83971375 -193.68547272 271.97044312 -193.68769836 273.13543701 C-193.75087023 279.10180191 -194.2661563 284.28260789 -196 290 C-196.66 290 -197.32 290 -198 290 C-198.103125 290.721875 -198.20625 291.44375 -198.3125 292.1875 C-199.06718283 295.27483884 -200.3227585 297.31641361 -202 300 C-202.309375 300.845625 -202.61875 301.69125 -202.9375 302.5625 C-204.19541439 305.4483036 -205.57647984 307.00415987 -208 309 C-209.32860925 309.35169068 -210.66158328 309.68770276 -212 310 C-212.66 310.99 -213.32 311.98 -214 313 C-214.99 313 -215.98 313 -217 313 C-217 313.66 -217 314.32 -217 315 C-227.53293507 319.59618985 -240.64564173 319.62509325 -251.57421875 316.109375 C-255.96582684 314.10097452 -259.4565859 311.24126251 -263 308 C-263.93585938 307.14921875 -263.93585938 307.14921875 -264.890625 306.28125 C-266.32240865 304.91637212 -267.67108008 303.4652194 -269 302 C-269 301.34 -269 300.68 -269 300 C-269.66 300 -270.32 300 -271 300 C-271.26554687 299.36191406 -271.53109375 298.72382813 -271.8046875 298.06640625 C-272.15789062 297.24011719 -272.51109375 296.41382813 -272.875 295.5625 C-273.22304688 294.73878906 -273.57109375 293.91507812 -273.9296875 293.06640625 C-274.8244937 290.84253285 -274.8244937 290.84253285 -277 290 C-277.93973075 287.25520887 -278.12639818 284.7092536 -278.13142776 281.82439423 C-278.13526891 280.99478227 -278.13911005 280.16517032 -278.1430676 279.31041861 C-278.14176787 277.95110527 -278.14176787 277.95110527 -278.14044189 276.56433105 C-278.14341302 275.59749468 -278.14638414 274.63065831 -278.1494453 273.63452387 C-278.15813575 270.38589783 -278.15964086 267.13730863 -278.16113281 263.88867188 C-278.16576086 261.56275351 -278.1707855 259.23683591 -278.17617798 256.91091919 C-278.18930806 250.5841061 -278.1957485 244.25730363 -278.20018864 237.93047905 C-278.20311928 233.97646314 -278.20722415 230.02245012 -278.21169281 226.06843567 C-278.2238038 215.11201866 -278.23418431 204.15560418 -278.2375679 193.1991806 C-278.23778747 192.49804835 -278.23800703 191.79691611 -278.23823325 191.07453743 C-278.23845153 190.37175772 -278.23866981 189.66897801 -278.2388947 188.94490194 C-278.23933816 187.52088515 -278.23978472 186.09686836 -278.24023438 184.67285156 C-278.2404558 183.96649498 -278.24067723 183.26013839 -278.24090537 182.53237706 C-278.24484857 171.10142331 -278.2622874 159.6705335 -278.2855939 148.23960441 C-278.3093521 136.49180838 -278.32177186 124.74404436 -278.32293582 112.99622393 C-278.32398275 106.40515489 -278.32986654 99.81417596 -278.34775543 93.22312927 C-278.36426871 87.01792581 -278.3663757 80.81287985 -278.35761642 74.6076622 C-278.35684771 72.33576408 -278.36116677 70.06385739 -278.37107468 67.79198074 C-278.48329283 40.44626794 -278.48329283 40.44626794 -272.0625 30.5 C-271.57910156 29.7265625 -271.09570312 28.953125 -270.59765625 28.15625 C-268.89414344 25.85713247 -267.13894441 23.90128392 -265 22 C-264.34 22 -263.68 22 -263 22 C-263 21.34 -263 20.68 -263 20 C-261.56570999 19.32645501 -260.12742943 18.66140299 -258.6875 18 C-257.88699219 17.62875 -257.08648437 17.2575 -256.26171875 16.875 C-254 16 -254 16 -251 16 C-250.67 15.01 -250.34 14.02 -250 13 C-245.23887815 11.79759855 -240.56629881 11.78037384 -235.6875 11.75 C-234.87087891 11.729375 -234.05425781 11.70875 -233.21289062 11.6875 C-227.46373122 11.65085197 -223.27044292 12.6953184 -218 15 C-218 15.66 -218 16.32 -218 17 C-216.02 17.66 -214.04 18.32 -212 19 C-212 19.66 -212 20.32 -212 21 C-210.948125 21.0928125 -210.948125 21.0928125 -209.875 21.1875 C-205.87919913 22.31674807 -203.97189322 24.09722058 -201 27 C-201 27.99 -201 28.98 -201 30 C-199.515 30.495 -199.515 30.495 -198 31 C-196.421875 32.6015625 -196.421875 32.6015625 -194.75 34.625 C-189.11661442 41.68768648 -189.11661442 41.68768648 -182 47 C-181.67 47.99 -181.34 48.98 -181 50 C-179.41198474 51.6481667 -179.41198474 51.6481667 -177.4375 53.25 C-176.3546875 54.17232422 -176.3546875 54.17232422 -175.25 55.11328125 C-174.5075 55.73589844 -173.765 56.35851562 -173 57 C-168.98316051 60.3701892 -165.15474824 63.70029114 -161.76171875 67.7109375 C-157.99097852 72.07237847 -153.97531436 76.13756758 -149.875 80.1875 C-149.18535156 80.87263672 -148.49570313 81.55777344 -147.78515625 82.26367188 C-146.4497111 83.59018001 -145.1134025 84.9158196 -143.77612305 86.24047852 C-140.50181719 89.48417917 -137.2463116 92.74439975 -134.02734375 96.04296875 C-132.99744215 97.09119134 -131.96749377 98.13936797 -130.9375 99.1875 C-130.42123047 99.72052734 -129.90496094 100.25355469 -129.37304688 100.80273438 C-126.77232145 103.43659006 -124.479268 105.63999836 -121 107 C-121 107.99 -121 108.98 -121 110 C-120.01 110.33 -119.02 110.66 -118 111 C-116.63360658 112.6396721 -115.3050581 114.31110128 -114 116 C-112.35050484 117.68719791 -110.68412953 119.34778989 -109 121 C-105.89091657 124.05755567 -102.78800872 127.12125104 -99.6875 130.1875 C-98.85154297 131.00669922 -98.01558594 131.82589844 -97.15429688 132.66992188 C-96.36474609 133.45302734 -95.57519531 134.23613281 -94.76171875 135.04296875 C-94.03944092 135.75477295 -93.31716309 136.46657715 -92.57299805 137.19995117 C-91 139 -91 139 -91 141 C-90.2678125 141.23074219 -89.535625 141.46148437 -88.78125 141.69921875 C-85.47116127 143.24733609 -83.86128573 145.03965215 -81.5 147.8125 C-80.72011719 148.7096875 -79.94023437 149.606875 -79.13671875 150.53125 C-78.43160156 151.3459375 -77.72648438 152.160625 -77 153 C-74.464929 155.65298128 -71.98381231 158.01302054 -69.125 160.3125 C-65.87106729 162.95948153 -63.22453348 166.0395698 -60.515625 169.23046875 C-58.96792368 171.08344907 -58.96792368 171.08344907 -57 173 C-56.99668985 172.28493003 -56.99337971 171.56986006 -56.98996925 170.8331213 C-56.90869878 153.42250508 -56.81659306 136.01197983 -56.71247292 118.60148525 C-56.66238136 110.18185169 -56.61593807 101.76222769 -56.578125 93.3425293 C-56.5451524 86.00271131 -56.50529213 78.66296832 -56.45720994 71.32323319 C-56.43199727 67.4380054 -56.41020063 63.55282704 -56.39665604 59.6675396 C-56.38378807 56.0075904 -56.36168304 52.34781114 -56.33261681 48.68795586 C-56.3192811 46.71051184 -56.3156287 44.73300987 -56.31230164 42.75552368 C-56.25633346 36.80146454 -56.07637861 31.60816188 -54 26 C-53.34 26 -52.68 26 -52 26 C-51.67 23.36 -51.34 20.72 -51 18 C-50.34 18 -49.68 18 -49 18 C-48.63648438 16.89398438 -48.63648438 16.89398438 -48.265625 15.765625 C-46.09515602 11.02274834 -42.18489224 8.00022425 -38 5 C-34.4375 4 -34.4375 4 -32 4 C-32 3.34 -32 2.68 -32 2 C-22.47650138 -2.46413998 -10.11387923 -1.91343661 0 0 Z " fill="#4991F0" transform="translate(375,85)"/>
<path d="M0 0 C-0.71285156 0.4125 -1.42570312 0.825 -2.16015625 1.25 C-8.60656379 5.13693214 -13.45757745 9.00549155 -18 15 C-18.763125 15.9075 -19.52625 16.815 -20.3125 17.75 C-22.4752812 21.91535638 -22.99682748 25.86374524 -23.60546875 30.48828125 C-24 33 -24 33 -25 34 C-25.09803662 37.07189424 -25.12990812 40.12131989 -25.12025452 43.19361877 C-25.12110894 44.17044221 -25.12196337 45.14726565 -25.12284368 46.1536898 C-25.12450145 49.45347089 -25.11897228 52.75320205 -25.11352539 56.05297852 C-25.11324356 58.40777587 -25.11340118 60.76257331 -25.1139679 63.11737061 C-25.11425602 69.53240369 -25.10835691 75.94741826 -25.10139394 82.36244702 C-25.09531949 88.38063146 -25.09477212 94.39881809 -25.09374207 100.41700505 C-25.09155123 112.3404255 -25.0848903 124.26383912 -25.07543945 136.18725586 C-25.06626615 147.77254197 -25.05918492 159.35782623 -25.05493164 170.94311523 C-25.05466892 171.65674445 -25.05440619 172.37037367 -25.05413551 173.10562802 C-25.05283051 176.6855504 -25.05156679 180.2654728 -25.05032361 183.84539521 C-25.03995002 213.56360133 -25.02225673 243.28180034 -25 273 C-26.61623796 270.14389683 -27.25050532 268.09928181 -27.25447559 264.82439423 C-27.26030779 263.99478227 -27.26613998 263.16517032 -27.27214891 262.31041861 C-27.26836958 261.40420971 -27.26459026 260.49800082 -27.26069641 259.56433105 C-27.26452196 258.59749468 -27.26834751 257.63065831 -27.27228898 256.63452387 C-27.28263021 253.38585167 -27.27862458 250.13735584 -27.2746582 246.88867188 C-27.27900424 244.56275264 -27.28418702 242.23683485 -27.29014587 239.91091919 C-27.30356363 233.58408975 -27.3041111 227.25731995 -27.30158257 220.93047905 C-27.30037888 214.97944818 -27.30658875 209.02842739 -27.31201603 203.07739955 C-27.32289704 190.56238359 -27.32072735 178.04739455 -27.31463119 165.53237706 C-27.30947034 154.10141874 -27.32069441 142.67054585 -27.33972941 131.23960441 C-27.35914124 119.49180285 -27.36735739 107.74404162 -27.36360615 95.99622393 C-27.36179527 89.40516208 -27.36440947 82.81417834 -27.37832069 76.22312927 C-27.39092622 70.01791602 -27.38892899 63.81287294 -27.37590981 57.6076622 C-27.37354984 55.33576779 -27.37625781 53.06386131 -27.38453293 50.79198074 C-27.47694888 23.4364407 -27.47694888 23.4364407 -21.0625 13.5 C-20.57910156 12.7265625 -20.09570312 11.953125 -19.59765625 11.15625 C-17.89414344 8.85713247 -16.13894441 6.90128392 -14 5 C-13.34 5 -12.68 5 -12 5 C-12 4.34 -12 3.68 -12 3 C-10.5682384 2.30062798 -9.12932968 1.61587282 -7.6875 0.9375 C-6.88699219 0.55464844 -6.08648437 0.17179687 -5.26171875 -0.22265625 C-3 -1 -3 -1 0 0 Z " fill="#1D829E" transform="translate(124,102)"/>
<path d="M0 0 C2.39952305 2.39952305 2.25076819 2.91040971 2.25447559 6.18053055 C2.26030779 7.06211153 2.26613998 7.94369252 2.27214891 8.85198808 C2.26836958 9.82647959 2.26459026 10.80097111 2.26069641 11.80499268 C2.26452196 12.83560688 2.26834751 13.86622108 2.27228898 14.92806602 C2.2826619 18.40424336 2.27861866 21.88025684 2.2746582 25.35644531 C2.27900238 27.83958592 2.28418453 30.32272518 2.29014587 32.80586243 C2.30218331 38.86493107 2.3046831 44.92393457 2.30234561 50.98300919 C2.30056478 55.90806818 2.30230704 60.8331137 2.30657005 65.75817108 C2.30716524 66.45833416 2.30776043 67.15849723 2.30837366 67.87987737 C2.30958538 69.30216092 2.31079951 70.72444447 2.31201603 72.14672801 C2.32290262 85.49754623 2.32072419 98.84833922 2.31463119 112.19915888 C2.30946481 124.41351194 2.32070807 136.62778519 2.33972941 148.84212247 C2.35910286 161.37857989 2.36736443 173.91499955 2.36360615 186.45147204 C2.36169287 193.49173529 2.3641937 200.53193065 2.37832069 207.5721817 C2.39147377 214.19428781 2.38898101 220.81626054 2.37590981 227.43837547 C2.37353821 229.870819 2.37629946 232.30327368 2.38453293 234.73570442 C2.39495283 238.05301416 2.38693744 241.36978275 2.3742218 244.68707275 C2.38159609 245.65264138 2.38897037 246.61821002 2.39656812 247.6130383 C2.35424562 252.85163593 1.86555381 256.42896178 -1 261 C-2.26788772 258.46422456 -1.80938348 257.72489639 -1.07753181 255.03582859 C0.16659784 249.78462974 0.27360545 244.80404681 0.24050903 239.42674255 C0.24307231 237.88387568 0.24307231 237.88387568 0.24568737 236.30983979 C0.2489667 232.88283861 0.23800419 229.4560357 0.22705078 226.02905273 C0.22648633 223.5647024 0.22680389 221.10035173 0.22793579 218.63600159 C0.22839039 213.34045833 0.22273851 208.04497612 0.21146011 202.74944878 C0.19516439 195.09313751 0.18999295 187.43685004 0.18748413 179.78052331 C0.1831134 167.35684248 0.16982122 154.93318801 0.15087891 142.50952148 C0.13250398 130.44539522 0.11835538 118.38127612 0.10986328 106.31713867 C0.10933783 105.57275429 0.10881239 104.82836991 0.10827102 104.06142842 C0.10566083 100.32684636 0.10313344 96.59226425 0.10064721 92.85768211 C0.07993409 61.90510225 0.04457624 30.95255514 0 0 Z " fill="#4B4AB0" transform="translate(401,114)"/>
<path d="M0 0 C0.66 0.33 1.32 0.66 2 1 C1.6757435 2.27710563 1.35148701 3.55421125 1.01740456 4.87001705 C-0.11253571 9.98415671 -0.28974842 14.85824685 -0.2784729 20.07972717 C-0.2842653 21.05521891 -0.2900577 22.03071064 -0.29602563 23.03576273 C-0.31294219 26.28307193 -0.31589494 29.53023829 -0.31884766 32.77758789 C-0.32815158 35.11386459 -0.33832095 37.45013799 -0.34928894 39.78640747 C-0.37655051 46.11417809 -0.39172703 52.44192649 -0.40471697 58.76974034 C-0.41877793 64.71716203 -0.44190971 70.6645427 -0.46498732 76.61193519 C-0.5103828 88.38669791 -0.54702745 100.16147078 -0.578125 111.9362793 C-0.60834028 123.36989117 -0.64270418 134.80347824 -0.68261719 146.23706055 C-0.68507874 146.94261399 -0.68754028 147.64816743 -0.69007643 148.37510128 C-0.70245161 151.91489069 -0.71490803 155.45467982 -0.72740483 158.99446881 C-0.83086408 188.32960998 -0.91995649 217.66478561 -1 247 C-1.33 247 -1.66 247 -2 247 C-2.04562279 216.40016098 -2.08101812 185.80032974 -2.10213066 155.20046484 C-2.10463208 151.58807025 -2.10722072 147.97567573 -2.10986328 144.36328125 C-2.1103879 143.64411695 -2.11091252 142.92495266 -2.11145304 142.1839955 C-2.12015623 130.538591 -2.13592573 118.89320624 -2.15430559 107.24781345 C-2.17300704 95.29903459 -2.18411724 83.35026606 -2.18817699 71.40147316 C-2.19067524 64.68982937 -2.19668524 57.97822674 -2.21146011 51.26659775 C-2.22501824 44.95151311 -2.2292262 38.63649178 -2.22621536 32.32139397 C-2.22676632 30.00182819 -2.23075424 27.68226034 -2.23841095 25.36270714 C-2.24834439 22.19866633 -2.2459746 19.03486531 -2.24050903 15.87081909 C-2.24633472 14.9505776 -2.2521604 14.03033611 -2.25816262 13.08220851 C-2.23587358 8.31640666 -1.8510191 4.47843414 0 0 Z " fill="#081B2C" transform="translate(98,123)"/>
<path d="M0 0 C0.66 0 1.32 0 2 0 C2 0.66 2 1.32 2 2 C2.639375 2.268125 3.27875 2.53625 3.9375 2.8125 C6 4 6 4 7 7 C7.66 7 8.32 7 9 7 C9 7.66 9 8.32 9 9 C9.639375 9.268125 10.27875 9.53625 10.9375 9.8125 C13 11 13 11 14 14 C14.66 14 15.32 14 16 14 C16 14.66 16 15.32 16 16 C16.99 16.33 17.98 16.66 19 17 C19 17.66 19 18.32 19 19 C19.66 19 20.32 19 21 19 C21 19.66 21 20.32 21 21 C21.66 21 22.32 21 23 21 C23 21.66 23 22.32 23 23 C23.99 23.33 24.98 23.66 26 24 C26 24.66 26 25.32 26 26 C26.66 26 27.32 26 28 26 C28 26.66 28 27.32 28 28 C28.639375 28.268125 29.27875 28.53625 29.9375 28.8125 C32 30 32 30 33 33 C33.66 33 34.32 33 35 33 C35 33.66 35 34.32 35 35 C35.639375 35.268125 36.27875 35.53625 36.9375 35.8125 C39 37 39 37 40 40 C40.66 40 41.32 40 42 40 C42 40.66 42 41.32 42 42 C42.78375 42.309375 43.5675 42.61875 44.375 42.9375 C47 44 47 44 49 45 C49 45.66 49 46.32 49 47 C49.99 47 50.98 47 52 47 C52 47.66 52 48.32 52 49 C52.78503906 49.06058594 53.57007813 49.12117188 54.37890625 49.18359375 C55.42949219 49.26738281 56.48007812 49.35117187 57.5625 49.4375 C58.66722656 49.52386719 59.77195312 49.61023438 60.91015625 49.69921875 C64 50 64 50 67.5 50.75 C75.58853507 51.32775251 83.56878586 47.91940556 91 45 C92.32881328 44.649081 93.66132389 44.31118348 95 44 C91.68192476 48.00934092 87.94719931 49.72455018 83 51 C81.68 51 80.36 51 79 51 C79 51.66 79 52.32 79 53 C58.32443197 53.76418937 58.32443197 53.76418937 50 49 C48.96875 48.46375 47.9375 47.9275 46.875 47.375 C45.946875 46.694375 45.946875 46.694375 45 46 C45 45.34 45 44.68 45 44 C44.26243973 43.74976074 43.52487946 43.49952148 42.76496887 43.24169922 C39.76231798 41.89326116 38.0784845 40.45288475 35.76049805 38.1328125 C34.96004562 37.33858887 34.1595932 36.54436523 33.33488464 35.72607422 C32.4857399 34.86771973 31.63659515 34.00936523 30.76171875 33.125 C29.88095169 32.24473145 29.00018463 31.36446289 28.09272766 30.45751953 C25.76092048 28.12277633 23.43630258 25.78115041 21.11419678 23.43676758 C19.21134957 21.5204885 17.29926066 19.61357009 15.38699627 17.70669556 C13.11083751 15.43467262 10.8427533 13.15463174 8.57421875 10.875 C7.71495285 10.01664551 6.85568695 9.15829102 5.97038269 8.27392578 C5.18569107 7.47970215 4.40099945 6.68547852 3.5925293 5.8671875 C2.89701462 5.16706543 2.20149994 4.46694336 1.48490906 3.74560547 C0 2 0 2 0 0 Z " fill="#412AB4" transform="translate(292,350)"/>
<path d="M0 0 C4.51882916 2.19094747 7.13390329 5.31359328 10.30078125 9.078125 C12.32069671 11.36271903 14.60431129 13.12229804 17 15 C18.34294481 16.65893182 19.67744688 18.32476605 21 20 C21.99 20.66 22.98 21.32 24 22 C24 23.32 24 24.64 24 26 C18.06 26.33 12.12 26.66 6 27 C6 26.01 6 25.02 6 24 C6.66 23.67 7.32 23.34 8 23 C8 22.01 8 21.02 8 20 C8.99 19.67 9.98 19.34 11 19 C10.01 18.34 9.02 17.68 8 17 C12.75 16.875 12.75 16.875 15 18 C15 17.34 15 16.68 15 16 C14.34 16 13.68 16 13 16 C13 15.34 13 14.68 13 14 C11.9171875 13.62875 11.9171875 13.62875 10.8125 13.25 C7.72393418 11.87730408 5.48988582 10.27646704 3 8 C3 7.34 3 6.68 3 6 C1.68 5.67 0.36 5.34 -1 5 C-0.67 3.35 -0.34 1.7 0 0 Z " fill="#37ACE8" transform="translate(285,226)"/>
<path d="M0 0 C0.33 0 0.66 0 1 0 C1 47.19 1 94.38 1 143 C0.01 143 -0.98 143 -2 143 C-2 142.34 -2 141.68 -2 141 C-2.99 140.67 -3.98 140.34 -5 140 C-5 139.34 -5 138.68 -5 138 C-5.99 138 -6.98 138 -8 138 C-8.495 138.99 -8.495 138.99 -9 140 C-9.33 137.36 -9.66 134.72 -10 132 C-8.87411986 132.95729916 -7.7493285 133.91587895 -6.625 134.875 C-5.99851562 135.40867188 -5.37203125 135.94234375 -4.7265625 136.4921875 C-3.44163349 137.61432007 -2.20628025 138.79371975 -1 140 C-0.67 93.8 -0.34 47.6 0 0 Z " fill="#2F5892" transform="translate(319,118)"/>
<path d="M0 0 C4.7312253 1.49407115 4.7312253 1.49407115 6.0625 4 C6.371875 4.66 6.68125 5.32 7 6 C7.680625 6.33 8.36125 6.66 9.0625 7 C11 8 11 8 11.75 10.125 C11.87375 11.053125 11.87375 11.053125 12 12 C13.32 12.33 14.64 12.66 16 13 C16.33 14.32 16.66 15.64 17 17 C16.01 16.67 15.02 16.34 14 16 C14 15.34 14 14.68 14 14 C13.01 14 12.02 14 11 14 C10.649375 13.113125 10.29875 12.22625 9.9375 11.3125 C7.79659138 7.13418215 7.79659138 7.13418215 1 3 C0.67 43.92 0.34 84.84 0 127 C-0.33 127 -0.66 127 -1 127 C-1.02332895 110.58891314 -1.04097916 94.17783163 -1.05181217 77.76673222 C-1.05697514 70.14729827 -1.06401784 62.52787461 -1.07543945 54.90844727 C-1.08538628 48.26971173 -1.09185342 41.63098363 -1.09408849 34.99224085 C-1.09539561 31.47495664 -1.09848147 27.95769374 -1.10573006 24.44041634 C-1.11374389 20.52025062 -1.11399114 16.60010601 -1.11352539 12.67993164 C-1.11712067 11.50533386 -1.12071594 10.33073608 -1.12442017 9.12054443 C-1.12235817 7.52820732 -1.12235817 7.52820732 -1.12025452 5.90370178 C-1.12117631 4.97545625 -1.1220981 4.04721071 -1.12304783 3.09083652 C-1 1 -1 1 0 0 Z " fill="#2B4F8E" transform="translate(181,240)"/>
<path d="M0 0 C0.66 0.33 1.32 0.66 2 1 C1.67854004 2.13300537 1.35708008 3.26601074 1.02587891 4.43334961 C-0.61531356 11.86899134 -0.35934712 19.48976571 -0.4140625 27.06640625 C-0.43280003 28.71265099 -0.45237532 30.35888638 -0.4727478 32.00511169 C-0.52380223 36.31054138 -0.56356972 40.61600212 -0.60089111 44.92156982 C-0.64109929 49.32604483 -0.69211442 53.73039368 -0.7421875 58.13476562 C-0.83863024 66.75642382 -0.92313496 75.37814512 -1 84 C-1.33 84 -1.66 84 -2 84 C-2.04638263 73.9337071 -2.08189935 63.86743971 -2.10362434 53.80106163 C-2.11405232 49.12661331 -2.12819357 44.45223821 -2.15087891 39.77783203 C-2.17264237 35.26503405 -2.18457604 30.75230641 -2.18975449 26.23945999 C-2.19344395 24.51951617 -2.20064854 22.79957612 -2.21146011 21.07966232 C-2.22602163 18.66679373 -2.227976 16.2542142 -2.22705078 13.84130859 C-2.23424133 13.13352264 -2.24143188 12.42573669 -2.24884033 11.69650269 C-2.23116933 7.42516946 -1.56036705 3.97276997 0 0 Z " fill="#04202B" transform="translate(98,123)"/>
<path d="M0 0 C0.66 0 1.32 0 2 0 C2 0.66 2 1.32 2 2 C3.32 2.33 4.64 2.66 6 3 C6 3.66 6 4.32 6 5 C6.99 5.33 7.98 5.66 9 6 C9 6.66 9 7.32 9 8 C9.66 8 10.32 8 11 8 C11 8.66 11 9.32 11 10 C11.639375 10.268125 12.27875 10.53625 12.9375 10.8125 C15 12 15 12 16 15 C16.66 15 17.32 15 18 15 C18 15.66 18 16.32 18 17 C18.99 17.33 19.98 17.66 21 18 C21 18.66 21 19.32 21 20 C21.66 20 22.32 20 23 20 C23 20.66 23 21.32 23 22 C23.66 22 24.32 22 25 22 C25 22.66 25 23.32 25 24 C25.99 24.33 26.98 24.66 28 25 C28 25.66 28 26.32 28 27 C28.66 27 29.32 27 30 27 C30 27.66 30 28.32 30 29 C30.639375 29.268125 31.27875 29.53625 31.9375 29.8125 C34 31 34 31 35 34 C30.73075502 32.35678977 27.92685367 29.14418098 24.80859375 25.93359375 C24.22207535 25.33950211 23.63555695 24.74541046 23.03126526 24.13331604 C21.16178778 22.23944994 19.2989032 20.33930054 17.4375 18.4375 C14.98358811 15.93048272 12.52320888 13.43008448 10.05859375 10.93359375 C9.49603378 10.3544371 8.93347382 9.77528046 8.35386658 9.17857361 C5.92727303 6.72158481 4.32394521 5.10798174 1 4 C0.3125 1.9375 0.3125 1.9375 0 0 Z " fill="#4137B8" transform="translate(257,316)"/>
<path d="M0 0 C4.51882916 2.19094747 7.13390329 5.31359328 10.30078125 9.078125 C12.32069671 11.36271903 14.60431129 13.12229804 17 15 C18.34294481 16.65893182 19.67744688 18.32476605 21 20 C21.99 20.66 22.98 21.32 24 22 C23.67 22.66 23.34 23.32 23 24 C22.01 23.67 21.02 23.34 20 23 C20 22.34 20 21.68 20 21 C18.68 20.67 17.36 20.34 16 20 C15.67 18.68 15.34 17.36 15 16 C14.34 16 13.68 16 13 16 C13 15.34 13 14.68 13 14 C11.9171875 13.62875 11.9171875 13.62875 10.8125 13.25 C7.72393418 11.87730408 5.48988582 10.27646704 3 8 C3 7.34 3 6.68 3 6 C1.68 5.67 0.36 5.34 -1 5 C-0.67 3.35 -0.34 1.7 0 0 Z " fill="#17B6BC" transform="translate(285,226)"/>
<path d="M0 0 C0.33 0 0.66 0 1 0 C1 14.52 1 29.04 1 44 C0.01 44 -0.98 44 -2 44 C-2 43.34 -2 42.68 -2 42 C-2.99 41.67 -3.98 41.34 -5 41 C-5 40.34 -5 39.68 -5 39 C-5.99 39 -6.98 39 -8 39 C-8.33 39.66 -8.66 40.32 -9 41 C-9.33 38.36 -9.66 35.72 -10 33 C-8.87411986 33.95729916 -7.7493285 34.91587895 -6.625 35.875 C-5.99851562 36.40867188 -5.37203125 36.94234375 -4.7265625 37.4921875 C-3.44163349 38.61432007 -2.20628025 39.79371975 -1 41 C-0.67 27.47 -0.34 13.94 0 0 Z " fill="#394B93" transform="translate(319,217)"/>
<path d="M0 0 C-0.71285156 0.4125 -1.42570312 0.825 -2.16015625 1.25 C-8.57601618 5.11851312 -13.45779608 9.03157506 -18 15 C-18.33 14.34 -18.66 13.68 -19 13 C-18.07421875 11.0546875 -18.07421875 11.0546875 -16.6875 8.875 C-16.23761719 8.15054688 -15.78773437 7.42609375 -15.32421875 6.6796875 C-14.88722656 6.12539062 -14.45023437 5.57109375 -14 5 C-13.34 5 -12.68 5 -12 5 C-12 4.34 -12 3.68 -12 3 C-10.5682384 2.30062798 -9.12932968 1.61587282 -7.6875 0.9375 C-6.88699219 0.55464844 -6.08648437 0.17179687 -5.26171875 -0.22265625 C-3 -1 -3 -1 0 0 Z " fill="#12A9AB" transform="translate(124,102)"/>
<path d="M0 0 C5.07612318 -0.61528766 7.82982006 1.38341651 12 4 C12 4.66 12 5.32 12 6 C7.71 5.67 3.42 5.34 -1 5 C0 3 0 3 3 2 C2.01 1.34 1.02 0.68 0 0 Z " fill="#1BD7DD" transform="translate(293,243)"/>
<path d="M0 0 C4.48926364 3.02161976 7.71191655 5.65503259 11 10 C11.99 10.66 12.98 11.32 14 12 C13.67 12.66 13.34 13.32 13 14 C12.01 13.67 11.02 13.34 10 13 C10 12.34 10 11.68 10 11 C8.68 10.67 7.36 10.34 6 10 C5.67 8.68 5.34 7.36 5 6 C4.34 6 3.68 6 3 6 C3 5.34 3 4.68 3 4 C2.01 3.67 1.02 3.34 0 3 C0 2.01 0 1.02 0 0 Z " fill="#0BA49D" transform="translate(295,236)"/>
<path d="M0 0 C1.9375 0.8125 1.9375 0.8125 4 2 C4.33 2.99 4.66 3.98 5 5 C5.66 5.309375 6.32 5.61875 7 5.9375 C9 7 9 7 9.75 9.125 C9.87375 10.053125 9.87375 10.053125 10 11 C11.32 11.33 12.64 11.66 14 12 C14.33 13.32 14.66 14.64 15 16 C14.01 15.67 13.02 15.34 12 15 C12 14.34 12 13.68 12 13 C11.01 13 10.02 13 9 13 C8.608125 12.0925 8.21625 11.185 7.8125 10.25 C5.90679102 6.83286666 4.06573859 5.33964261 1 3 C0.67 2.01 0.34 1.02 0 0 Z " fill="#217CA0" transform="translate(183,241)"/>
<path d="M0 0 C0 3 0 3 -1.75 5.125 C-4.03105098 7.02587582 -5.20817938 7.34857519 -8 8 C-8.99 9.485 -8.99 9.485 -10 11 C-10.99 11 -11.98 11 -13 11 C-13 11.66 -13 12.32 -13 13 C-14.32 12.67 -15.64 12.34 -17 12 C-15.61019248 10.86756424 -14.21285323 9.74436881 -12.8125 8.625 C-12.03519531 7.99851562 -11.25789062 7.37203125 -10.45703125 6.7265625 C-8.02544795 5.01788234 -5.76535921 4.04635213 -3 3 C-1.22722741 1.47992158 -1.22722741 1.47992158 0 0 Z " fill="#353D96" transform="translate(171,387)"/>
<path d="M0 0 C0.66 0 1.32 0 2 0 C2 0.66 2 1.32 2 2 C3.32 2.33 4.64 2.66 6 3 C6 3.66 6 4.32 6 5 C6.99 5.33 7.98 5.66 9 6 C9 6.66 9 7.32 9 8 C9.66 8 10.32 8 11 8 C11 8.66 11 9.32 11 10 C11.639375 10.28875 12.27875 10.5775 12.9375 10.875 C15 12 15 12 16 14 C12.15688732 13.44975568 10.53293315 11.80046737 7.9375 9 C4.96621261 5.76639142 4.96621261 5.76639142 1 4 C0.3125 1.9375 0.3125 1.9375 0 0 Z " fill="#3F3DAF" transform="translate(257,316)"/>
<path d="M0 0 C0.66 0 1.32 0 2 0 C2 0.66 2 1.32 2 2 C2.639375 2.268125 3.27875 2.53625 3.9375 2.8125 C6 4 6 4 7 7 C7.66 7 8.32 7 9 7 C9 7.66 9 8.32 9 9 C9.639375 9.28875 10.27875 9.5775 10.9375 9.875 C13 11 13 11 14 13 C9.72538761 12.51061681 7.67448934 10.04257174 4.75 7.0625 C3.85796875 6.16660156 2.9659375 5.27070313 2.046875 4.34765625 C0 2 0 2 0 0 Z " fill="#4230BB" transform="translate(292,350)"/>
<path d="M0 0 C3.44137432 1.5294997 6.2222133 3.45369552 9 6 C9 6.99 9 7.98 9 9 C9.99 9.33 10.98 9.66 12 10 C13.1875 12.0625 13.1875 12.0625 14 14 C12.68 13.67 11.36 13.34 10 13 C10 12.34 10 11.68 10 11 C9.34 11 8.68 11 8 11 C6.62464661 9.02866014 5.29788956 7.02318078 4 5 C2.68456721 3.31916921 1.35683751 1.6475884 0 0 Z " fill="#1D6486" transform="translate(165,106)"/>
<path d="M0 0 C0.68835938 0.59748047 0.68835938 0.59748047 1.390625 1.20703125 C5.31674827 4.60015709 5.31674827 4.60015709 9.4375 7.75 C9.953125 8.1625 10.46875 8.575 11 9 C11 9.66 11 10.32 11 11 C10.01 11 9.02 11 8 11 C8 10.34 8 9.68 8 9 C7.01 8.67 6.02 8.34 5 8 C5 7.34 5 6.68 5 6 C4.01 6 3.02 6 2 6 C1.67 6.66 1.34 7.32 1 8 C0.67 5.36 0.34 2.72 0 0 Z " fill="#4836C3" transform="translate(309,250)"/>
<path d="M0 0 C0.66 0.33 1.32 0.66 2 1 C1.690625 2.19625 1.38125 3.3925 1.0625 4.625 C-0.37754808 11.00819185 -0.64769232 17.48230791 -1 24 C-1.33 24 -1.66 24 -2 24 C-2.05425013 21.12474331 -2.09379277 18.25052354 -2.125 15.375 C-2.14175781 14.56675781 -2.15851563 13.75851563 -2.17578125 12.92578125 C-2.21420986 8.19906185 -1.82737094 4.44612298 0 0 Z " fill="#033337" transform="translate(98,123)"/>
<path d="M0 0 C0.7425 0.0825 1.485 0.165 2.25 0.25 C2.25 1.9 2.25 3.55 2.25 5.25 C1.26 5.25 0.27 5.25 -0.75 5.25 C-0.75 4.59 -0.75 3.93 -0.75 3.25 C-2.73 3.58 -4.71 3.91 -6.75 4.25 C-3.42692308 0.31153846 -3.42692308 0.31153846 0 0 Z " fill="#5D68FB" transform="translate(307.75,251.75)"/>
<path d="M0 0 C-1.43011973 0.86646667 -2.86940619 1.71781829 -4.3125 2.5625 C-5.51326172 3.27599609 -5.51326172 3.27599609 -6.73828125 4.00390625 C-9 5 -9 5 -12 4 C-11.34 3.34 -10.68 2.68 -10 2 C-9.01 2 -8.02 2 -7 2 C-7 1.34 -7 0.68 -7 0 C-2.25 -1.125 -2.25 -1.125 0 0 Z " fill="#5485F8" transform="translate(305,253)"/>
<path d="M0 0 C1.15224028 0.92961422 2.29659176 1.8690125 3.4375 2.8125 C4.07558594 3.33457031 4.71367187 3.85664063 5.37109375 4.39453125 C7 6 7 6 8 9 C7.01 9 6.02 9 5 9 C0 3.76744186 0 3.76744186 0 0 Z " fill="#20A0B9" transform="translate(276,217)"/>
<path d="M0 0 C0.66 0 1.32 0 2 0 C1.75 3.375 1.75 3.375 1 7 C-1.0625 8.4375 -1.0625 8.4375 -3 9 C-3 9.66 -3 10.32 -3 11 C-3.66 10.67 -4.32 10.34 -5 10 C-4.360625 9.0925 -3.72125 8.185 -3.0625 7.25 C-1.38571047 4.60778619 -0.46310002 3.0101501 0 0 Z " fill="#212A64" transform="translate(177,375)"/>
<path d="M0 0 C3.57104439 1.87949705 5.54744301 3.17053157 7 7 C4.20171644 6.61402985 3.1794116 6.19863427 1.25 4.0625 C0 2 0 2 0 0 Z " fill="#2187A7" transform="translate(259,200)"/>
<path d="M0 0 C3.57104439 1.87949705 5.54744301 3.17053157 7 7 C5.68 6.67 4.36 6.34 3 6 C3 5.34 3 4.68 3 4 C2.34 4 1.68 4 1 4 C0.67 2.68 0.34 1.36 0 0 Z " fill="#2381A5" transform="translate(231,172)"/>
<path d="M0 0 C3.57104439 1.87949705 5.54744301 3.17053157 7 7 C5.68 6.67 4.36 6.34 3 6 C3 5.34 3 4.68 3 4 C2.34 4 1.68 4 1 4 C0.67 2.68 0.34 1.36 0 0 Z " fill="#247FA6" transform="translate(205,146)"/>
<path d="M0 0 C0.66 0.33 1.32 0.66 2 1 C-0.31 3.64 -2.62 6.28 -5 9 C-5.33 8.34 -5.66 7.68 -6 7 C-2.25 1.125 -2.25 1.125 0 0 Z " fill="#0BD0BF" transform="translate(111,108)"/>
<path d="M0 0 C2.31 1.65 4.62 3.3 7 5 C6.67 5.66 6.34 6.32 6 7 C5.01 6.67 4.02 6.34 3 6 C3 5.34 3 4.68 3 4 C2.01 3.67 1.02 3.34 0 3 C0 2.01 0 1.02 0 0 Z " fill="#0C9995" transform="translate(295,236)"/>
</svg>
